<svg xmlns="http://www.w3.org/2000/svg" viewBox="0 0 68 75" x="0px" y="0px"><path fill="#000000" d="M226.518252,110 L208.971286,119.748315 C207.638223,120.488905 206,119.524969 206,118 L206,110 L178,110 C176.895431,110 176,109.104569 176,108 C176,106.895431 176.895431,106 178,106 L192,106 L192,99 C192,97.8954305 192.895431,97 194,97 C195.104569,97 196,97.8954305 196,99 L196,106 L206,106 L206,74 L196,74 L196,81 C196,82.1045695 195.104569,83 194,83 C192.895431,83 192,82.1045695 192,81 L192,72 C192,70.8954305 192.895431,70 194,70 L206,70 L206,62 C206,60.4750314 207.638223,59.5110952 208.971286,60.2516854 L226.971286,70.2516854 C227.606216,70.6044245 228,71.2736657 228,72 L228,106 L242,106 C243.104569,106 244,106.895431 244,108 C244,109.104569 243.104569,110 242,110 L226.518252,110 Z M210,65.3990289 L210,114.600971 L224,106.823193 L224,73.1768067 L210,65.3990289 Z M186.828427,92 L188.414214,93.5857864 C189.195262,94.366835 189.195262,95.633165 188.414214,96.4142136 C187.633165,97.1952621 186.366835,97.1952621 185.585786,96.4142136 L180.585786,91.4142136 C179.804738,90.633165 179.804738,89.366835 180.585786,88.5857864 L185.585786,83.5857864 C186.366835,82.8047379 187.633165,82.8047379 188.414214,83.5857864 C189.195262,84.366835 189.195262,85.633165 188.414214,86.4142136 L186.828427,88 L197,88 C198.104569,88 199,88.8954305 199,90 C199,91.1045695 198.104569,92 197,92 L186.828427,92 Z M214,92 C212.895431,92 212,91.1045695 212,90 C212,88.8954305 212.895431,88 214,88 C215.104569,88 216,88.8954305 216,90 C216,91.1045695 215.104569,92 214,92 Z" transform="translate(-176 -60)"/></svg>