<?xml version="1.0" standalone="no"?>
<!DOCTYPE svg PUBLIC "-//W3C//DTD SVG 20010904//EN"
 "http://www.w3.org/TR/2001/REC-SVG-20010904/DTD/svg10.dtd">
<svg version="1.0" xmlns="http://www.w3.org/2000/svg"
 width="512.000000pt" height="512.000000pt" viewBox="0 0 512.000000 512.000000"
 preserveAspectRatio="xMidYMid meet">

<g transform="translate(0.000000,512.000000) scale(0.100000,-0.100000)"
fill="#000000" stroke="none">
<path d="M2435 4843 c-642 -58 -1176 -531 -1327 -1173 -25 -109 -36 -401 -19
-522 127 -881 988 -1461 1847 -1243 703 178 1181 844 1123 1562 -21 268 -100
496 -246 717 -90 136 -273 319 -408 409 -292 193 -633 281 -970 250z m203
-302 c34 -55 62 -108 62 -119 0 -31 -32 -52 -168 -106 -161 -65 -266 -124
-343 -194 -83 -76 -111 -127 -117 -216 -5 -87 12 -138 94 -273 38 -64 58 -108
61 -138 5 -42 4 -44 -23 -51 -18 -5 -62 1 -121 16 -80 20 -98 22 -132 11 -125
-37 -179 -182 -115 -309 51 -103 151 -156 359 -189 74 -12 72 -32 -14 -115
-112 -109 -138 -184 -85 -248 49 -58 97 -75 204 -74 98 1 107 3 330 82 130 45
140 47 140 20 -1 -33 -41 -126 -77 -178 -84 -124 -98 -211 -49 -307 14 -28 30
-54 36 -58 22 -14 -3 -25 -56 -25 -36 0 -54 -4 -54 -12 0 -9 -3 -10 -8 -2 -4
6 -43 14 -87 18 -333 28 -630 174 -856 421 -84 93 -88 99 -78 151 12 62 45
132 107 227 78 120 80 172 12 274 -32 47 -40 67 -40 103 0 53 27 115 73 173
65 80 82 145 56 214 -39 105 -165 145 -336 109 -52 -10 -63 -10 -63 1 0 22 76
190 119 263 204 342 573 578 974 620 142 15 126 22 195 -89z m338 29 c90 -31
250 -106 291 -138 l22 -17 -140 -195 c-178 -246 -192 -274 -187 -355 7 -113
61 -154 227 -176 l93 -13 -7 -60 c-4 -34 -11 -77 -16 -96 -30 -116 24 -190
140 -190 51 0 87 11 131 41 25 17 27 16 84 -22 84 -57 151 -69 222 -42 19 7
19 -44 -1 -163 -28 -171 -99 -351 -203 -509 -65 -99 -249 -281 -352 -348 -142
-92 -201 -117 -270 -117 -90 0 -180 46 -180 91 0 10 22 53 49 96 62 96 101
213 109 315 l5 78 -49 49 c-90 89 -178 92 -409 12 l-143 -49 31 44 c81 115 23
311 -106 358 -23 8 -76 20 -116 26 -69 10 -170 44 -160 55 3 2 25 -1 49 -6 75
-18 181 -6 234 25 145 85 161 264 40 453 -49 77 -84 149 -84 174 0 13 18 39
43 63 72 68 131 99 380 201 78 32 158 99 189 159 15 29 22 60 22 106 0 61 -7
84 -52 173 -7 13 24 7 114 -23z m624 -453 c72 -96 149 -244 189 -362 l29 -88
-25 -71 c-14 -39 -29 -74 -32 -78 -4 -4 -28 8 -55 27 -63 44 -107 58 -166 53
l-47 -5 -6 83 c-9 151 -62 206 -210 218 -45 4 -83 9 -85 11 -2 2 56 87 129
189 l133 186 44 -43 c24 -23 70 -77 102 -120z m-2119 -627 c-92 -142 -94 -349
-4 -451 12 -14 8 -26 -38 -98 l-52 -82 -13 31 c-52 123 -84 303 -84 470 l0
128 63 21 c52 18 115 33 159 40 4 1 -10 -26 -31 -59z"/>
<path d="M4745 3229 c-87 -11 -180 -75 -200 -138 -6 -19 -14 -21 -74 -21 -121
0 -213 -66 -248 -179 -17 -51 -16 -62 6 -260 12 -113 25 -224 28 -246 l5 -40
-49 -17 c-26 -10 -61 -26 -78 -36 -17 -11 -139 -169 -284 -367 l-253 -348 -74
-451 c-44 -270 -84 -481 -99 -526 -14 -41 -25 -89 -25 -105 0 -66 67 -113 134
-94 77 21 100 101 191 648 63 378 77 448 97 476 320 444 436 596 456 601 15 4
38 -1 60 -13 55 -28 54 -59 -7 -190 -176 -382 -231 -509 -231 -535 0 -42 57
-98 99 -98 65 0 84 20 146 157 33 70 121 252 197 403 l139 274 20 301 c10 165
22 359 26 430 3 72 10 138 15 148 6 12 21 17 47 17 69 0 70 -3 92 -331 39
-568 14 -866 -100 -1177 -17 -47 -128 -249 -285 -517 -211 -362 -262 -457
-288 -535 -30 -94 -31 -97 -14 -131 20 -42 52 -62 97 -61 53 1 81 31 114 118
17 47 129 251 274 499 134 231 257 448 272 482 75 164 140 453 159 706 11 151
8 240 -25 735 -16 233 -24 266 -85 336 -60 67 -152 98 -255 85z m-245 -384
c10 -12 10 -59 0 -233 -7 -119 -15 -230 -19 -246 -4 -19 -16 53 -34 213 -30
258 -28 281 17 281 13 0 29 -7 36 -15z"/>
<path d="M205 3206 c-58 -26 -109 -81 -137 -144 -42 -95 -78 -897 -50 -1112
29 -219 91 -453 157 -595 17 -38 140 -255 272 -481 151 -258 249 -436 263
-479 31 -92 64 -128 119 -128 32 0 49 7 71 28 40 39 42 68 10 167 -22 69 -80
177 -285 527 -273 468 -301 527 -350 736 -63 264 -72 490 -37 978 22 312 23
317 93 317 48 0 59 -18 59 -102 0 -35 11 -228 24 -430 l24 -366 110 -214 c61
-117 138 -274 172 -348 107 -234 110 -240 140 -255 45 -23 85 -19 122 14 57
50 50 74 -105 411 -157 338 -161 355 -96 384 22 10 50 15 62 12 14 -4 86 -94
197 -247 96 -133 198 -274 227 -313 l52 -72 75 -450 c82 -487 108 -590 159
-628 56 -42 142 -14 161 53 7 26 4 51 -18 119 -16 51 -57 271 -101 535 -51
309 -79 457 -91 475 -10 15 -126 175 -258 356 -239 328 -240 329 -300 357 -34
16 -67 29 -73 29 -17 0 -17 -4 13 248 14 119 23 237 20 261 -8 57 -51 135 -94
168 -49 37 -97 52 -168 53 -53 0 -62 3 -71 23 -20 44 -68 90 -118 113 -70 33
-180 33 -250 0z m480 -363 c12 -11 15 -27 12 -47 -3 -17 -15 -124 -28 -238
-12 -114 -25 -205 -29 -203 -4 2 -13 110 -20 239 -10 190 -10 238 0 251 16 20
44 19 65 -2z"/>
</g>
</svg>
