<svg xmlns="http://www.w3.org/2000/svg" viewBox="0 0 24 30" fill="none" x="0px" y="0px"><path fill-rule="evenodd" clip-rule="evenodd" d="M16 12C16 14.2091 14.2091 16 12 16C9.79086 16 8 14.2091 8 12C8 9.79086 9.79086 8 12 8C14.2091 8 16 9.79086 16 12ZM14 12C14 13.1046 13.1046 14 12 14C10.8954 14 10 13.1046 10 12C10 10.8954 10.8954 10 12 10C13.1046 10 14 10.8954 14 12Z" fill="black"/><path fill-rule="evenodd" clip-rule="evenodd" d="M24 12C24 14.072 23.5054 15.3197 21.7785 16.0505C22.4827 17.7883 21.9501 19.0202 20.4851 20.4853C19.0201 21.9503 17.7882 22.4829 16.0504 21.7787C15.3196 23.5055 14.0719 24 12 24C9.92808 24 8.68039 23.5055 7.94953 21.7787C6.21169 22.4829 4.97975 21.9504 3.51468 20.4853C2.04961 19.0202 1.51705 17.7883 2.22129 16.0504C0.494526 15.3196 0 14.0719 0 12C0 9.92816 0.494497 8.68049 2.22115 7.94962C1.51687 6.21175 2.04942 4.9798 3.51451 3.51472C4.97962 2.04961 6.21159 1.51706 7.94951 2.2214C8.68036 0.494546 9.92806 0 12 0C14.0719 0 15.3196 0.49453 16.0505 2.22132C17.7883 1.5171 19.0202 2.04967 20.4852 3.51472C21.9503 4.97978 22.4829 6.21171 21.7786 7.94953C23.5055 8.68038 24 9.92808 24 12ZM19.925 7.19839C19.5147 8.21099 19.9929 9.3655 20.9991 9.79136C21.5169 10.0105 21.6709 10.2161 21.7571 10.3842C21.8826 10.629 22 11.0831 22 12C22 12.9169 21.8826 13.3711 21.7571 13.6158C21.6709 13.7839 21.5169 13.9895 20.999 14.2087C19.9928 14.6345 19.5146 15.789 19.9249 16.8017C20.136 17.3227 20.0996 17.577 20.0416 17.7568C19.9573 18.0186 19.7192 18.4227 19.0709 19.0711C18.4225 19.7194 18.0184 19.9575 17.7566 20.0418C17.5768 20.0998 17.3225 20.1362 16.8015 19.9251C15.7889 19.5148 14.6345 19.993 14.2086 20.9992C13.9895 21.5169 13.7839 21.6709 13.6158 21.7571C13.371 21.8826 12.9169 22 12 22C11.0831 22 10.629 21.8826 10.3842 21.7571C10.2161 21.6709 10.0105 21.5169 9.79136 20.9991C9.3655 19.9929 8.21098 19.5147 7.19838 19.9251C6.67729 20.1362 6.42299 20.0998 6.2432 20.0418C5.9814 19.9575 5.57724 19.7194 4.92889 19.0711C4.28054 18.4227 4.04247 18.0186 3.95811 17.7568C3.90018 17.577 3.86371 17.3227 4.07488 16.8016C4.48523 15.789 4.00702 14.6345 3.00085 14.2086C2.48309 13.9895 2.32907 13.7839 2.2429 13.6158C2.11744 13.371 2 12.9169 2 12C2 11.0831 2.11743 10.629 2.24289 10.3842C2.32906 10.2161 2.48307 10.0105 3.00076 9.79141C4.0069 9.36553 4.48508 8.21102 4.07472 7.19844C3.86354 6.67734 3.90001 6.42303 3.95794 6.24324C4.04229 5.98145 4.28036 5.57729 4.92872 4.92893C5.57709 4.28056 5.98125 4.04249 6.24304 3.95815C6.42283 3.90022 6.67715 3.86375 7.1983 4.07496C8.21092 4.48536 9.36549 4.00713 9.79134 3.00092C10.0105 2.48311 10.2161 2.32908 10.3842 2.24291C10.629 2.11744 11.0831 2 12 2C12.9169 2 13.371 2.11744 13.6158 2.2429C13.7839 2.32907 13.9895 2.4831 14.2086 3.00086C14.6345 4.00703 15.789 4.48524 16.8016 4.07491C17.3227 3.86375 17.5769 3.90022 17.7567 3.95816C18.0185 4.04251 18.4227 4.28059 19.071 4.92893C19.7194 5.57728 19.9574 5.98144 20.0418 6.24323C20.0997 6.42302 20.1362 6.67731 19.925 7.19839Z" fill="black"/></svg>