<svg xmlns="http://www.w3.org/2000/svg" viewBox="0 0 24 30" x="0px" y="0px"><g><path d="M19.77,5.17l-5-3.33a5,5,0,0,0-5.54,0l-5,3.33A5,5,0,0,0,2,9.33V18a5,5,0,0,0,5,5H17a5,5,0,0,0,5-5V9.33A5,5,0,0,0,19.77,5.17ZM10,21V16a1,1,0,0,1,1-1h2a1,1,0,0,1,1,1v5Zm10-3a3,3,0,0,1-3,3H16V16a3,3,0,0,0-3-3H11a3,3,0,0,0-3,3v5H7a3,3,0,0,1-3-3V9.33A3,3,0,0,1,5.34,6.84l5-3.34a3,3,0,0,1,3.32,0l5,3.34A3,3,0,0,1,20,9.33Z"/></g><text x="0" y="39" fill="#000000" font-size="5px" font-weight="bold" font-family="'Helvetica Neue', Helvetica, Arial-Unicode, Arial, Sans-serif">Created by Arkinasi</text><text x="0" y="44" fill="#000000" font-size="5px" font-weight="bold" font-family="'Helvetica Neue', Helvetica, Arial-Unicode, Arial, Sans-serif">from the Noun Project</text></svg>