<?xml version="1.0" standalone="no"?>
<!DOCTYPE svg PUBLIC "-//W3C//DTD SVG 20010904//EN"
 "http://www.w3.org/TR/2001/REC-SVG-20010904/DTD/svg10.dtd">
<svg version="1.0" xmlns="http://www.w3.org/2000/svg"
 width="828.000000pt" height="288.000000pt" viewBox="0 0 828.000000 288.000000"
 preserveAspectRatio="xMidYMid meet">

<g transform="translate(0.000000,288.000000) scale(0.100000,-0.100000)"
fill="#000000" stroke="none">
<path d="M3594 2465 c-6 -15 -1 -44 13 -82 4 -11 -9 -4 -35 20 -38 34 -82 49
-82 29 0 -5 18 -37 40 -70 22 -34 38 -62 35 -62 -2 0 -26 14 -52 30 -78 50
-100 31 -40 -36 l32 -37 -30 7 c-49 12 -65 11 -65 -8 0 -17 219 -220 228 -211
4 4 -40 51 -98 105 -58 55 -100 99 -95 100 6 0 36 -14 68 -30 31 -17 62 -28
68 -24 7 4 -15 32 -52 70 -83 83 -57 85 39 2 36 -31 57 -37 48 -13 -3 8 -26
47 -52 86 -25 39 -44 73 -41 75 2 2 34 -26 71 -63 72 -73 82 -69 41 19 -25 54
-32 88 -16 88 12 0 67 -107 80 -155 6 -22 17 -49 25 -60 13 -18 16 -16 41 38
15 32 34 57 42 57 10 0 13 -6 9 -17 -4 -9 -9 -72 -13 -140 -5 -109 -8 -123
-24 -123 -20 0 -220 -69 -233 -81 -12 -11 29 -205 72 -334 59 -180 256 -549
300 -563 6 -2 -9 27 -34 65 -100 147 -290 579 -270 612 3 5 46 26 96 47 49 21
90 42 90 46 0 8 -79 -21 -140 -52 -22 -11 -44 -20 -49 -20 -9 0 -24 55 -36
140 l-7 45 109 38 c60 20 114 37 121 37 7 0 12 -13 12 -30 0 -42 28 -173 52
-244 45 -135 164 -341 237 -410 45 -43 38 -25 -18 48 -64 85 -140 221 -180
324 -55 145 -65 206 -66 425 0 174 -2 200 -17 208 -21 11 -45 -11 -66 -61
l-15 -35 -10 25 c-30 76 -70 157 -84 172 -20 22 -42 23 -49 3z"/>
<path d="M4564 2325 c-43 -46 -64 -109 -42 -131 13 -14 18 -12 48 12 53 45 80
134 44 148 -11 4 -28 -6 -50 -29z"/>
<path d="M6544 2260 c-52 -11 -95 -49 -123 -109 -22 -49 -25 -69 -25 -156 0
-61 7 -124 17 -161 15 -56 15 -66 2 -104 -30 -85 -15 -204 32 -260 14 -17 24
-32 22 -34 -2 -1 -21 -12 -41 -25 -46 -28 -83 -98 -73 -141 6 -27 4 -30 -18
-30 -14 0 -78 14 -143 31 -66 17 -162 42 -214 56 -68 18 -129 26 -215 28
l-120 4 -22 32 c-13 18 -23 40 -23 50 0 22 -7 23 -40 4 -30 -17 -64 -20 -54
-4 3 6 26 19 50 29 46 20 61 46 22 37 -63 -15 -98 -18 -98 -9 0 5 20 13 45 16
25 4 45 12 45 18 0 7 -16 8 -45 4 -29 -5 -45 -4 -45 3 0 6 8 11 18 11 21 0 49
17 41 24 -7 7 -119 -30 -132 -43 -5 -5 5 -9 24 -8 27 2 34 -2 34 -16 0 -10 8
-23 18 -29 14 -7 16 -13 6 -24 -6 -7 -8 -21 -5 -30 6 -16 34 -16 77 1 12 4 19
-2 27 -22 5 -15 13 -35 16 -44 5 -11 -5 -24 -33 -42 -62 -41 -95 -113 -95
-207 0 -56 6 -87 22 -124 12 -27 20 -52 17 -55 -3 -3 -65 -7 -138 -9 -73 -2
-137 -5 -143 -7 -8 -2 0 -49 22 -144 l34 -140 -46 -101 c-26 -55 -44 -103 -41
-107 10 -10 12 -7 76 132 l61 130 210 3 c115 1 210 0 210 -2 0 -2 -25 -57 -55
-121 -60 -128 -59 -125 -46 -125 4 0 22 31 39 69 26 58 34 69 51 64 27 -7 43
34 35 87 -5 28 -12 40 -28 44 -11 3 -112 6 -223 6 l-202 0 -14 -26 c-13 -25
-15 -21 -40 83 -15 59 -27 111 -27 116 0 4 120 6 268 5 l267 -3 27 -110 c14
-60 39 -163 54 -227 27 -117 38 -147 48 -137 4 4 -69 321 -112 484 -7 28 -11
30 -66 33 -56 3 -58 4 -52 28 8 32 -11 31 -26 -1 -10 -22 -18 -25 -60 -25 -48
0 -49 1 -68 43 -32 73 -30 83 19 109 46 25 90 72 78 85 -4 3 -20 -5 -35 -19
-30 -28 -64 -48 -83 -48 -19 0 -3 87 25 134 14 24 42 52 68 66 39 22 53 25
143 23 69 -1 128 -8 189 -25 84 -21 91 -25 110 -61 30 -53 74 -97 98 -97 17 0
12 10 -32 56 -29 30 -50 57 -48 60 3 2 52 -7 109 -21 57 -14 133 -28 168 -32
l64 -6 -7 24 c-18 61 -17 94 4 127 l21 33 30 -25 c39 -33 92 -42 149 -26 25 7
77 18 117 26 39 7 86 20 103 29 19 10 42 14 59 10 15 -3 40 -1 55 5 22 8 32 6
57 -12 62 -46 188 -22 271 51 104 91 103 255 -2 329 l-38 27 5 61 c12 129 -45
237 -150 288 -51 25 -61 27 -178 24 l-124 -3 -61 44 c-65 45 -118 61 -170 51z
m90 -375 c4 -10 -1 -15 -14 -15 -11 0 -20 -4 -20 -10 0 -9 -62 -40 -81 -40
-20 0 -6 17 38 48 52 36 68 39 77 17z m104 -49 c10 -23 66 -45 80 -32 3 4 11
-7 19 -24 7 -18 24 -35 40 -41 25 -8 28 -14 28 -53 -1 -24 -7 -51 -14 -60 -12
-15 -17 -14 -52 6 -34 19 -39 26 -39 58 0 20 5 41 10 46 16 16 2 41 -32 55
-26 11 -32 10 -42 -3 -6 -8 -21 -18 -32 -22 -17 -5 -22 -2 -26 18 -3 14 0 30
5 35 7 7 6 15 -3 26 -11 13 -8 15 17 15 22 0 33 -7 41 -24z m-100 -28 c18 -18
14 -56 -8 -78 -26 -26 -66 -26 -73 0 -3 13 -10 18 -21 14 -25 -10 -20 23 9 51
26 27 73 33 93 13z m-134 -37 c-7 -36 10 -69 41 -81 16 -6 23 -15 19 -25 -4
-10 0 -15 15 -15 12 0 24 7 27 15 8 20 24 19 24 -2 0 -46 81 -72 126 -39 17
13 24 12 58 -7 21 -12 42 -33 47 -46 9 -21 14 -23 51 -17 79 13 104 -50 44
-110 -34 -34 -81 -45 -102 -24 -6 6 -28 3 -64 -11 -206 -79 -398 62 -361 264
11 59 55 142 71 132 5 -3 7 -19 4 -34z m261 -34 c22 -17 15 -72 -13 -93 -28
-22 -62 -18 -62 7 0 16 -5 20 -20 16 -24 -6 -26 10 -4 41 27 38 69 50 99 29z"/>
<path d="M6500 1557 c0 -21 22 -37 53 -37 19 0 27 4 24 13 -2 6 -14 11 -25 9
-13 -2 -25 3 -28 12 -7 19 -24 21 -24 3z"/>
<path d="M4155 2217 c-65 -31 -101 -74 -121 -144 -25 -86 -1 -200 50 -242 9
-8 16 -29 16 -50 0 -37 23 -82 35 -69 4 3 1 16 -5 29 -16 28 -7 95 16 120 16
18 40 27 31 12 -6 -10 -13 -54 -27 -180 -19 -159 10 -247 93 -287 103 -48 209
8 281 152 23 45 30 52 55 52 18 0 41 11 61 30 17 16 48 34 69 40 118 32 202
175 170 293 -14 53 -79 119 -139 140 -25 8 -88 22 -140 30 -60 9 -128 28 -185
51 -120 50 -191 56 -260 23z m98 -243 c11 -15 47 -44 79 -65 32 -20 54 -40 48
-44 -23 -14 -8 -22 33 -18 71 8 89 -5 111 -81 18 -64 18 -68 1 -114 -48 -127
-101 -200 -163 -225 -53 -21 -106 -11 -147 27 -60 57 -67 139 -29 349 15 79
18 87 39 87 32 0 72 -35 85 -75 9 -28 8 -45 -3 -85 -8 -28 -11 -52 -6 -55 15
-10 33 39 35 101 3 57 1 63 -32 97 -19 19 -49 39 -65 42 -25 6 -30 11 -25 28
3 12 6 30 6 40 0 24 9 21 33 -9z m385 -196 c30 -30 -3 -129 -48 -143 -12 -4
-24 -5 -26 -2 -9 8 40 157 51 157 6 0 16 -5 23 -12z"/>
<path d="M4212 1808 c-7 -7 -12 -16 -12 -22 0 -6 5 -5 12 2 18 18 28 14 28
-12 0 -30 24 -40 45 -20 18 18 18 20 5 45 -12 22 -59 26 -78 7z"/>
<path d="M4375 1794 c-21 -21 -13 -29 15 -14 19 10 21 10 16 -8 -8 -23 17 -47
39 -38 18 6 20 47 3 64 -17 17 -54 15 -73 -4z"/>
<path d="M4256 1594 c-20 -19 -20 -38 -1 -58 41 -40 109 -19 103 32 -2 23 -8
27 -34 28 -17 1 -36 4 -42 8 -6 3 -18 -1 -26 -10z"/>
<path d="M1685 2172 c-48 -30 -91 -86 -110 -144 -10 -29 -27 -65 -39 -80 -36
-46 -166 -150 -308 -246 -77 -53 -161 -119 -192 -152 -133 -144 -170 -330 -98
-484 49 -104 125 -175 242 -223 30 -12 54 -27 53 -32 -2 -5 -40 -67 -86 -138
-94 -144 -157 -248 -157 -257 0 -3 9 -6 19 -6 13 0 37 28 77 93 216 344 457
667 539 721 21 14 27 14 59 1 39 -17 40 -19 27 -61 -5 -16 -11 -63 -14 -105
-4 -71 -2 -76 15 -71 10 2 52 36 93 74 90 84 88 84 152 -47 39 -78 44 -96 39
-135 -3 -25 -2 -50 2 -56 4 -8 78 -14 215 -19 l208 -7 -3 -32 c-2 -22 -7 -30
-18 -27 -39 11 -163 12 -173 2 -8 -8 5 -11 49 -11 32 0 76 -5 97 -11 33 -9 38
-14 34 -32 -3 -12 -9 -44 -12 -70 -7 -47 -8 -48 -23 -25 -20 29 -43 47 -59 48
-15 0 -17 -36 -3 -45 17 -10 11 -25 -9 -25 -27 0 -71 59 -78 105 -4 23 -9 33
-15 27 -15 -15 1 -69 29 -102 l25 -30 -25 0 c-32 0 -77 -52 -77 -88 0 -15 9
-38 19 -52 l19 -24 7 49 c3 28 7 57 8 65 2 11 19 16 75 18 l72 3 0 -41 c0 -33
3 -40 20 -40 23 0 23 0 50 175 11 72 29 180 40 240 11 61 20 140 20 177 0 57
-3 69 -20 78 -17 9 -22 7 -30 -15 -6 -15 -10 -36 -10 -48 0 -43 -14 -49 -43
-20 -36 38 -44 97 -19 142 20 38 73 71 112 71 43 0 93 -34 117 -80 21 -40 23
-41 23 -15 0 39 -63 100 -113 109 -30 6 -49 2 -85 -16 -56 -28 -81 -68 -89
-142 -6 -55 -5 -56 37 -98 42 -42 42 -42 35 -98 -13 -109 8 -99 -193 -93 -98
3 -181 9 -185 13 -4 3 6 83 23 176 17 93 41 228 54 299 l22 130 164 -3 c325
-6 650 -18 656 -25 4 -3 -3 -59 -15 -124 -11 -65 -35 -194 -51 -287 -17 -93
-33 -173 -36 -177 -3 -5 -63 -9 -135 -9 -118 0 -155 -8 -113 -24 31 -12 251
-7 262 7 5 6 19 66 30 132 11 66 35 203 52 304 27 153 30 185 19 196 -10 9
-120 15 -416 23 -221 6 -411 8 -422 5 -24 -6 -23 -4 -52 -160 l-22 -123 -32
46 c-18 25 -42 52 -54 60 -13 10 -21 26 -21 44 0 36 -16 80 -29 80 -6 0 -6
-12 1 -31 13 -39 4 -108 -22 -159 -21 -41 -145 -180 -161 -180 -14 0 -10 83 5
128 22 61 54 99 100 118 23 9 35 19 28 21 -23 9 -57 -6 -90 -38 -32 -32 -34
-32 -60 -17 -36 21 -72 75 -72 107 0 25 33 91 46 91 4 0 24 -20 45 -44 51 -58
89 -72 124 -45 14 11 25 29 25 40 0 12 10 23 28 29 80 29 124 73 166 160 27
57 31 76 31 150 0 67 -5 98 -25 149 -31 80 -98 157 -165 187 -55 26 -143 32
-191 13 l-28 -10 19 22 c31 34 78 49 158 49 60 0 83 -5 128 -27 70 -36 109
-105 109 -192 0 -53 2 -58 37 -87 38 -32 38 -33 38 -105 0 -87 -23 -146 -61
-155 -27 -7 -33 -24 -8 -24 31 0 56 23 80 73 40 87 28 189 -29 233 -18 15 -26
33 -32 74 -15 120 -73 196 -171 226 -55 16 -144 18 -194 4 -80 -22 -144 -131
-157 -268 l-6 -63 26 6 c21 6 29 1 44 -21 14 -22 18 -48 18 -121 0 -86 -2 -94
-26 -118 -35 -36 -94 -43 -135 -17 -96 60 -80 256 23 288 2 0 9 36 17 80 23
132 60 194 139 233 27 13 35 21 22 21 -11 0 -34 -8 -50 -18z m298 -174 c20
-18 45 -51 57 -73 l20 -40 -34 -6 c-80 -13 -124 -76 -111 -159 4 -25 7 -57 7
-72 1 -30 8 -34 25 -17 8 8 7 20 -3 45 -22 53 -17 106 12 111 6 1 9 -10 6 -29
-6 -42 19 -33 33 10 5 18 14 31 20 28 43 -18 45 -18 39 -3 -8 21 -47 29 -81
16 l-28 -10 25 25 c28 28 68 41 89 27 21 -14 33 -98 21 -161 -30 -162 -147
-265 -262 -231 -53 16 -83 36 -109 72 -19 27 -19 29 -2 56 14 22 18 47 17 123
l-1 95 61 38 c43 28 68 38 88 35 32 -5 38 9 7 20 l-20 8 21 26 c11 15 27 43
35 62 9 20 19 36 23 36 5 0 25 -15 45 -32z m27 -820 c25 -52 26 -62 18 -120
-13 -93 -17 -98 -38 -58 -25 45 -24 53 0 45 33 -10 22 8 -26 45 -58 43 -72 71
-52 102 8 13 18 36 22 52 7 28 7 28 28 10 11 -11 33 -45 48 -76z m345 -588
c27 -30 12 -34 -15 -5 -13 14 -19 25 -13 25 5 0 18 -9 28 -20z"/>
<path d="M1813 1830 c-13 -5 -23 -14 -23 -21 0 -6 7 -9 15 -5 12 4 13 2 3 -14
-10 -15 -10 -22 0 -32 11 -11 16 -9 28 6 8 11 14 26 14 34 0 10 7 12 25 8 33
-8 33 12 -1 24 -30 12 -32 12 -61 0z"/>
<path d="M1859 1584 c-9 -11 -10 -20 -2 -32 13 -23 57 -27 72 -8 17 21 6 50
-15 42 -9 -4 -22 -2 -29 4 -9 7 -16 6 -26 -6z"/>
<path d="M2295 2144 c-28 -36 -28 -57 0 -34 9 7 25 26 36 42 31 43 -2 37 -36
-8z"/>
<path d="M2007 2077 c25 -27 44 -60 51 -90 12 -46 32 -65 32 -29 0 31 -47 118
-75 140 -46 36 -50 25 -8 -21z"/>
<path d="M3348 2028 c-47 -46 -103 -110 -125 -143 -51 -76 -105 -183 -100
-198 2 -6 21 22 41 63 53 104 103 172 198 267 45 46 79 85 76 88 -3 4 -44 -31
-90 -77z"/>
<path d="M2388 2054 c-21 -13 -38 -29 -38 -35 0 -12 83 36 88 51 6 16 -10 11
-50 -16z"/>
<path d="M3389 1973 c-84 -87 -121 -138 -168 -231 -43 -85 -69 -154 -86 -224
-16 -71 -4 -78 14 -8 19 74 68 197 103 260 44 76 80 123 162 208 39 39 66 72
60 72 -6 0 -44 -35 -85 -77z"/>
<path d="M2418 1933 c-10 -2 -18 -9 -18 -15 0 -5 7 -7 16 -4 9 3 22 6 30 6 8
0 14 5 14 10 0 10 -12 11 -42 3z"/>
<path d="M6060 1905 c41 -13 80 -23 85 -21 21 6 -59 37 -108 42 l-52 4 75 -25z"/>
<path d="M3646 1905 c-6 -17 17 -31 34 -20 5 3 10 13 10 21 0 19 -36 18 -44
-1z"/>
<path d="M5871 1871 c-10 -10 -47 -24 -83 -30 -35 -7 -71 -16 -78 -21 -25 -15
-4 -22 36 -12 22 6 64 13 95 17 46 5 58 10 62 27 6 22 22 22 152 2 31 -5 37
-4 29 5 -31 33 -183 42 -213 12z"/>
<path d="M5505 1716 c-19 -14 -13 -36 16 -54 26 -17 40 -5 16 12 -38 29 -17
30 53 4 l25 -10 -25 -13 c-14 -8 -65 -29 -115 -47 -97 -35 -98 -52 -1 -18 33
11 60 19 60 18 8 -24 30 -47 62 -65 21 -13 38 -28 36 -34 -5 -20 18 -76 38
-94 29 -27 36 -11 10 24 -11 17 -24 47 -27 66 -5 29 -13 40 -44 55 -55 29 -61
44 -13 38 21 -4 47 -9 57 -13 14 -6 18 -4 15 11 -5 30 27 28 47 -3 20 -30 26
-111 12 -175 -11 -54 8 -48 22 6 16 65 13 115 -9 165 -11 24 -19 45 -18 46 2
1 23 9 48 17 34 11 46 20 48 37 6 40 -11 43 -86 15 -71 -26 -72 -26 -114 -9
-74 30 -96 34 -113 21z m273 -27 c-2 -6 -33 -22 -68 -35 -35 -14 -69 -29 -75
-34 -8 -6 -22 -7 -35 -2 -19 7 -9 14 71 45 105 40 112 42 107 26z"/>
<path d="M4888 1578 c-16 -5 -28 -14 -28 -20 0 -6 8 -7 18 -3 34 14 92 18 92
6 0 -6 -17 -11 -42 -11 -32 0 -39 -3 -30 -12 16 -16 70 -14 88 4 14 14 14 17
-1 32 -18 18 -56 20 -97 4z"/>
<path d="M5347 1544 c-16 -16 -6 -35 16 -32 12 2 22 10 22 18 0 16 -26 25 -38
14z"/>
<path d="M4895 1460 c-9 -14 40 -60 65 -60 23 0 28 31 8 47 -20 16 -66 24 -73
13z m55 -20 c8 -5 11 -12 7 -16 -4 -4 -15 0 -24 9 -18 18 -8 23 17 7z"/>
<path d="M4193 1388 c-26 -13 -31 -49 -8 -68 23 -19 164 -10 199 13 37 25 28
31 -17 12 -20 -8 -57 -15 -82 -15 -42 0 -44 1 -33 19 9 15 9 23 -1 35 -15 18
-27 19 -58 4z"/>
<path d="M6737 1290 c6 -51 5 -52 -15 -41 -11 6 -29 23 -40 38 -11 16 -24 25
-28 21 -13 -13 18 -69 47 -84 34 -17 36 -25 9 -49 -29 -26 -25 -42 12 -50 94
-21 176 -81 234 -171 31 -48 61 -131 51 -141 -8 -7 -68 27 -74 43 -7 18 -23
18 -23 0 0 -17 61 -72 90 -81 20 -6 21 -12 15 -53 -9 -62 -37 -120 -87 -177
-41 -47 -45 -65 -10 -46 37 20 90 89 112 147 48 129 4 300 -106 404 -49 46
-141 100 -171 100 -17 0 -16 10 3 55 17 42 12 106 -11 125 -12 10 -13 3 -8
-40z"/>
<path d="M3395 1318 c-11 -6 -50 -40 -87 -76 -37 -36 -97 -82 -134 -101 -83
-44 -106 -74 -111 -143 -3 -41 1 -63 19 -98 13 -24 29 -46 37 -48 8 -3 4 8
-10 27 -17 23 -24 49 -27 94 -4 57 -1 66 23 96 15 17 57 47 94 66 39 20 89 57
121 90 67 69 96 85 152 85 111 0 184 -114 138 -217 -11 -25 -18 -49 -14 -52 9
-9 33 29 46 71 21 71 -29 175 -98 204 -40 17 -121 18 -149 2z"/>
<path d="M5700 1240 c0 -45 17 -85 48 -114 35 -31 44 -8 13 34 -16 22 -31 57
-35 80 -8 52 -26 52 -26 0z"/>
<path d="M4115 1233 c-3 -21 -8 -50 -10 -65 -7 -47 15 -42 73 15 67 67 65 85
-3 25 l-47 -42 3 52 c5 60 -7 70 -16 15z"/>
<path d="M4210 1113 c-23 -82 -56 -192 -72 -246 -16 -54 -27 -101 -23 -105 11
-11 18 10 75 212 30 108 58 196 61 196 4 0 14 -20 23 -45 21 -54 32 -62 55
-41 26 24 115 155 109 161 -3 3 -29 -26 -59 -64 -30 -38 -56 -70 -59 -70 -4
-1 -16 33 -28 74 -12 41 -26 75 -31 75 -4 0 -27 -66 -51 -147z"/>
<path d="M6477 1232 c-3 -15 -22 -48 -43 -75 -40 -51 -40 -70 0 -44 25 17 66
91 66 120 0 28 -17 28 -23 -1z"/>
<path d="M4470 1232 c66 -46 228 -192 277 -251 175 -212 186 -440 25 -542 -44
-28 -45 -29 -17 -29 74 0 155 123 155 236 0 114 -55 241 -154 357 -73 86 -270
248 -300 246 -6 0 0 -8 14 -17z"/>
<path d="M1605 1180 c-10 -17 5 -30 35 -30 33 0 49 18 29 31 -19 12 -56 11
-64 -1z"/>
<path d="M5925 1127 c-20 -34 -43 -57 -70 -71 -30 -15 -35 -22 -22 -24 45 -9
119 50 133 105 12 47 -11 41 -41 -10z"/>
<path d="M4175 1131 c-6 -11 9 -23 19 -14 9 9 7 23 -3 23 -6 0 -12 -4 -16 -9z"/>
<path d="M6609 1108 c-21 -39 -28 -89 -17 -117 10 -24 12 -22 19 33 5 32 16
70 24 82 14 21 14 24 1 24 -9 0 -21 -10 -27 -22z"/>
<path d="M2565 1105 c4 -11 10 -28 12 -38 5 -17 -9 -118 -63 -446 -13 -80 -22
-147 -19 -149 9 -10 25 11 25 34 0 24 1 24 86 24 l87 0 -6 -60 c-3 -33 -2 -60
3 -60 11 0 20 38 20 93 0 35 -4 47 -15 48 -8 1 -19 3 -25 4 -5 1 -30 3 -55 4
-25 0 -45 5 -45 11 0 5 7 7 15 4 15 -6 19 5 15 36 -1 8 -13 27 -27 42 l-26 27
27 168 c32 202 32 224 5 254 -18 21 -20 21 -14 4z m5 -474 c15 -28 12 -33 -10
-19 -21 13 -27 38 -10 38 5 0 14 -9 20 -19z"/>
<path d="M1520 1066 c0 -17 49 -29 101 -24 22 2 34 8 34 18 0 12 -15 16 -67
18 -55 2 -68 0 -68 -12z"/>
<path d="M1847 1063 c-4 -3 -7 -12 -7 -20 0 -16 56 -18 66 -2 12 20 -42 40
-59 22z"/>
<path d="M6203 1029 c-33 -21 -73 -90 -73 -127 0 -26 18 -29 26 -4 19 58 31
76 70 104 24 17 44 35 44 40 0 15 -34 8 -67 -13z"/>
<path d="M4147 1034 c-4 -4 -7 -14 -7 -23 0 -11 3 -12 11 -4 6 6 10 16 7 23
-2 6 -7 8 -11 4z"/>
<path d="M3494 1006 c-8 -20 68 -572 81 -584 11 -11 4 72 -15 193 -28 172 -50
334 -50 362 l0 23 254 0 c203 0 257 -3 268 -14 9 -8 27 -99 47 -237 24 -167
36 -227 49 -236 11 -9 59 -13 154 -13 115 0 139 -3 143 -15 15 -47 18 -51 22
-32 3 10 2 29 -1 43 -6 22 -12 24 -60 24 -40 0 -57 5 -71 20 -23 25 -36 25
-69 -1 -44 -35 -52 -16 -11 29 55 61 35 64 -23 3 -45 -46 -72 -63 -72 -43 0 4
20 29 45 55 25 27 45 51 45 53 0 13 -22 -1 -58 -38 -51 -52 -59 -27 -9 28 17
20 32 41 32 47 0 15 -35 9 -56 -9 -15 -13 -17 -13 -23 2 -16 41 76 75 147 54
61 -18 203 -164 212 -217 13 -80 17 -93 26 -93 5 0 9 15 9 34 0 34 -23 155
-35 187 -5 13 13 20 107 39 113 23 158 43 126 55 -18 7 -232 -51 -266 -72 -21
-13 -26 -11 -68 25 -24 22 -60 47 -78 56 -47 22 -114 20 -153 -4 l-33 -20 -4
23 c-3 12 -12 67 -21 122 -9 55 -20 115 -26 133 l-11 32 -274 0 c-230 0 -276
-2 -280 -14z"/>
<path d="M6363 993 c-24 -9 -13 -23 20 -23 29 0 54 -12 109 -52 25 -18 34 -1
12 23 -34 39 -108 66 -141 52z"/>
<path d="M6795 948 c-4 -18 -20 -52 -36 -75 -45 -64 -36 -87 13 -35 30 30 48
71 48 107 0 37 -18 39 -25 3z"/>
<path d="M1532 963 c-82 -3 -93 -6 -90 -21 3 -15 26 -17 242 -20 238 -2 276 2
248 30 -13 13 -223 19 -400 11z"/>
<path d="M5870 943 c0 -5 16 -21 35 -36 19 -15 44 -46 55 -67 22 -44 57 -57
44 -18 -11 35 -54 95 -80 113 -25 16 -54 20 -54 8z"/>
<path d="M4105 919 c-4 -6 -5 -13 -2 -16 7 -7 27 6 27 18 0 12 -17 12 -25 -2z"/>
<path d="M3425 881 c-27 -14 -52 -27 -54 -28 -2 -2 -1 -6 2 -10 9 -9 83 26
103 48 22 25 10 22 -51 -10z"/>
<path d="M6538 881 c-25 -10 -59 -28 -75 -39 l-30 -21 -48 25 c-50 25 -109 32
-120 14 -4 -6 8 -10 27 -10 19 0 57 -12 86 -26 l52 -26 27 20 c46 32 77 46 68
31 -6 -9 0 -11 26 -5 19 3 51 9 72 13 20 3 37 10 37 15 0 9 -40 6 -95 -8 -16
-4 -17 -3 -5 5 8 6 24 11 35 11 11 0 27 5 35 10 27 17 -41 11 -92 -9z"/>
<path d="M5770 852 c0 -27 83 -377 92 -387 12 -12 9 6 -39 215 -32 143 -52
206 -53 172z"/>
<path d="M6220 832 c0 -8 28 -18 116 -41 l40 -11 19 -155 c10 -86 15 -158 12
-161 -3 -4 -35 1 -71 11 -75 20 -66 0 -92 205 -15 119 -19 139 -28 129 -7 -7
31 -320 40 -329 5 -5 47 -18 93 -29 46 -11 89 -25 95 -31 12 -12 46 -13 46 -1
0 5 -8 11 -18 13 -15 4 -20 19 -25 74 -4 38 -11 107 -16 153 -6 47 -9 87 -6
89 2 3 10 2 18 -1 9 -3 18 -52 31 -158 9 -85 21 -158 26 -163 5 -5 42 -1 87 9
43 10 89 17 102 17 23 0 23 2 17 55 -5 46 -4 54 8 50 8 -3 22 1 33 8 16 13 13
14 -35 15 -59 0 -63 15 -7 26 40 7 85 -2 85 -17 0 -5 -17 -26 -37 -44 -46 -42
-22 -50 26 -9 35 29 41 66 13 86 -11 7 -22 29 -26 49 -6 36 -35 71 -68 82 -13
5 -18 17 -18 47 0 49 -1 49 -144 15 l-105 -26 -93 26 c-100 27 -118 30 -118
17z m375 -82 c-68 -17 -85 -42 -38 -57 l28 -10 -32 -17 c-35 -17 -43 -43 -18
-52 8 -4 13 -10 10 -14 -10 -16 22 -30 51 -21 45 13 87 -23 82 -70 -3 -33 -4
-34 -82 -52 -56 -13 -81 -15 -86 -7 -11 18 -41 313 -32 322 4 4 43 16 87 26
l80 18 5 -25 c5 -24 2 -27 -55 -41z m109 -21 c32 -15 56 -77 35 -90 -8 -5 -23
-9 -34 -9 -11 0 -31 -7 -44 -17 -24 -17 -93 -25 -84 -9 3 4 31 20 62 33 64 29
53 43 -16 19 -26 -9 -54 -16 -62 -15 -21 1 79 49 102 49 9 0 17 7 17 16 0 15
-9 16 -62 10 -37 -4 -58 -3 -53 3 23 21 102 26 139 10z"/>
<path d="M1410 821 c-30 -3 -55 -10 -55 -16 0 -14 525 -19 539 -5 5 5 6 13 2
17 -9 10 -409 13 -486 4z"/>
<path d="M3063 815 c-49 -21 -68 -59 -68 -135 0 -84 20 -117 73 -126 27 -4 42
-14 54 -34 24 -42 63 -63 115 -63 40 0 50 4 79 35 43 48 54 91 54 226 l0 112
-137 0 c-95 -1 -148 -5 -170 -15z m27 -130 c0 -94 0 -95 -25 -95 -52 0 -54
138 -2 175 12 8 23 15 24 15 2 0 3 -43 3 -95z"/>
<path d="M3795 800 c-3 -6 5 -14 18 -19 31 -12 40 -26 32 -50 -15 -47 -75 -30
-75 21 0 36 -15 28 -25 -14 -5 -19 -1 -32 14 -47 32 -32 68 -27 91 12 26 42
25 53 -5 82 -26 27 -40 31 -50 15z"/>
<path d="M4601 759 c-13 -17 -21 -33 -17 -36 3 -4 7 -4 9 -2 1 2 15 19 31 37
19 20 25 32 15 31 -8 0 -25 -14 -38 -30z"/>
<path d="M1949 763 c-53 -8 -132 -66 -173 -126 -34 -49 -41 -67 -44 -121 -3
-49 0 -66 13 -79 22 -22 32 -21 58 6 12 13 37 29 55 36 18 8 44 28 57 45 21
26 27 29 42 20 15 -10 18 -24 16 -75 -3 -63 7 -62 21 2 5 23 15 29 97 50 50
13 89 29 87 34 -2 6 -13 9 -25 7 -17 -2 -20 2 -16 18 4 15 -6 32 -37 62 -36
33 -39 39 -19 33 49 -14 54 -14 68 -6 23 15 3 49 -42 69 -44 21 -114 32 -158
25z m149 -43 c23 -11 42 -24 42 -29 0 -14 -4 -14 -70 4 -100 27 -139 13 -55
-19 46 -18 105 -66 105 -85 0 -6 -28 7 -62 29 -33 22 -71 40 -82 39 -20 0 -20
-1 4 -17 48 -32 106 -95 92 -100 -8 -2 -20 5 -27 15 -18 26 -85 77 -92 70 -2
-3 14 -22 36 -42 23 -21 41 -41 41 -46 0 -15 -20 -10 -47 11 -35 27 -59 25
-80 -6 -25 -38 -71 -56 -117 -43 -44 12 -46 30 -12 97 67 131 192 178 324 122z
m12 -150 c8 -5 11 -12 7 -16 -4 -4 -15 0 -24 9 -18 18 -8 23 17 7z"/>
<path d="M6850 733 c0 -4 5 -21 12 -39 9 -26 9 -41 -2 -73 -16 -49 -6 -65 21
-32 23 29 25 98 3 129 -14 21 -34 30 -34 15z"/>
<path d="M6045 694 c-16 -8 -38 -23 -49 -32 -19 -18 -56 -84 -56 -102 0 -22
20 -8 36 25 20 43 64 75 121 90 24 6 45 15 46 21 3 16 -67 15 -98 -2z"/>
<path d="M1256 691 c-3 -5 0 -13 7 -19 12 -9 439 -23 465 -15 25 9 11 31 -25
37 -59 9 -441 7 -447 -3z"/>
<path d="M4625 635 c3 -16 14 -74 23 -127 9 -54 20 -98 25 -98 21 0 -8 175
-39 228 l-15 27 6 -30z"/>
<path d="M5400 588 c-52 -32 -123 -111 -133 -150 -8 -30 7 -21 27 17 22 40 31
38 40 -10 4 -21 13 -35 22 -35 15 0 13 24 -8 79 -7 19 -4 29 14 49 28 30 94
61 129 62 62 0 107 -77 90 -152 -7 -29 -6 -38 4 -38 30 0 33 88 5 145 -36 73
-103 85 -190 33z"/>
<path d="M4575 550 c-4 -6 -3 -16 3 -22 6 -6 12 -6 17 2 4 6 3 16 -3 22 -6 6
-12 6 -17 -2z"/>
<path d="M1170 536 c0 -8 3 -17 8 -19 4 -3 119 -7 255 -9 210 -2 249 -1 257
12 6 9 5 17 -3 22 -7 4 -126 8 -264 8 -214 0 -253 -2 -253 -14z"/>
<path d="M6135 533 c15 -35 23 -84 18 -103 -4 -14 0 -20 11 -20 21 0 22 70 1
110 -17 32 -42 42 -30 13z"/>
</g>
</svg>
