<?xml version="1.0" standalone="no"?>
<!DOCTYPE svg PUBLIC "-//W3C//DTD SVG 20010904//EN"
 "http://www.w3.org/TR/2001/REC-SVG-20010904/DTD/svg10.dtd">
<svg version="1.0" xmlns="http://www.w3.org/2000/svg"
 width="512.000000pt" height="512.000000pt" viewBox="0 0 512.000000 512.000000"
 preserveAspectRatio="xMidYMid meet">

<g transform="translate(0.000000,512.000000) scale(0.100000,-0.100000)"
fill="#000000" stroke="none">
<path d="M2395 3833 c-417 -53 -779 -241 -1040 -540 -484 -554 -534 -1347
-123 -1963 35 -53 113 -146 176 -211 l112 -116 -77 -58 c-243 -180 -555 -582
-557 -716 -2 -110 119 -179 214 -123 22 13 50 51 89 117 77 134 158 241 259
342 86 87 206 183 288 231 l45 27 97 -46 c99 -46 276 -107 312 -107 65 0 135
60 141 120 9 97 -26 137 -159 181 -481 159 -806 524 -909 1019 -27 131 -25
374 6 509 29 135 61 223 123 342 174 335 489 582 860 675 140 35 379 44 518
20 284 -49 524 -173 724 -375 189 -189 306 -407 363 -671 25 -120 25 -400 -1
-520 -87 -399 -337 -727 -703 -919 -92 -48 -105 -58 -124 -97 -46 -96 22 -204
128 -204 15 0 62 17 106 37 l78 37 32 -19 c152 -87 358 -278 467 -433 36 -51
92 -143 125 -204 69 -128 98 -152 174 -145 52 6 90 31 113 78 26 51 22 86 -21
175 -120 249 -326 499 -542 661 l-87 65 92 91 c379 378 546 919 446 1441 -147
761 -819 1314 -1587 1305 -71 -1 -141 -4 -158 -6z"/>
<path d="M2085 2701 c-143 -74 -114 -287 43 -317 57 -11 103 5 148 50 33 32
44 52 49 88 20 132 -123 239 -240 179z"/>
<path d="M2890 2698 c-63 -32 -90 -77 -90 -148 0 -96 59 -160 152 -167 42 -3
61 1 92 19 63 37 81 69 81 146 0 81 -25 124 -89 153 -54 25 -92 24 -146 -3z"/>
<path d="M2145 2053 c-39 -10 -84 -53 -96 -92 -28 -93 18 -158 162 -228 218
-107 467 -111 676 -13 137 63 193 121 193 195 0 73 -53 132 -127 142 -30 4
-50 -2 -93 -26 -223 -125 -342 -130 -549 -25 -101 52 -122 58 -166 47z"/>
</g>
</svg>
