<?xml version="1.0" standalone="no"?>
<!DOCTYPE svg PUBLIC "-//W3C//DTD SVG 20010904//EN"
 "http://www.w3.org/TR/2001/REC-SVG-20010904/DTD/svg10.dtd">
<svg version="1.0" xmlns="http://www.w3.org/2000/svg"
 width="512.000000pt" height="512.000000pt" viewBox="0 0 512.000000 512.000000"
 preserveAspectRatio="xMidYMid meet">

<g transform="translate(0.000000,512.000000) scale(0.100000,-0.100000)"
fill="#000000" stroke="none">
<path d="M2489 5083 c-108 -98 -239 -302 -284 -443 -10 -30 -21 -59 -25 -63
-16 -18 -127 172 -170 291 -25 67 -49 92 -90 92 -36 0 -60 -19 -128 -104 -109
-136 -184 -304 -212 -474 l-12 -74 -88 86 c-93 91 -121 103 -167 71 -27 -19
-114 -232 -147 -358 -68 -261 -56 -505 34 -703 17 -37 29 -68 28 -68 -117 -51
-176 -104 -225 -204 -36 -72 -38 -81 -38 -172 0 -91 2 -100 38 -172 55 -113
160 -196 269 -214 46 -8 49 -12 77 -98 58 -181 162 -348 311 -496 148 -149
301 -245 490 -309 l85 -29 0 -103 0 -104 -40 -3 c-74 -5 -205 -33 -294 -62
-324 -106 -602 -338 -779 -651 -82 -144 -147 -375 -158 -561 -7 -105 -7 -106
19 -132 l26 -26 1551 0 1551 0 26 26 c26 26 26 27 19 132 -29 481 -317 917
-750 1134 -150 75 -338 130 -481 140 l-40 3 0 104 0 104 75 24 c186 60 352
163 500 312 149 150 250 311 310 496 29 87 32 91 78 99 62 10 158 63 203 114
23 26 56 76 73 112 28 59 31 74 31 161 0 90 -2 99 -38 171 -42 86 -111 156
-184 185 -31 13 -41 22 -37 33 126 288 135 526 33 838 -44 134 -96 254 -120
275 -44 36 -75 24 -169 -69 l-87 -85 -11 73 c-22 143 -85 300 -133 327 -29 16
-69 10 -93 -15 -29 -29 -29 -59 2 -126 41 -89 50 -120 66 -231 10 -67 22 -107
37 -128 25 -35 89 -68 132 -69 39 0 95 31 141 79 l40 41 24 -63 c36 -97 70
-248 78 -350 10 -148 -24 -312 -92 -437 l-27 -50 -91 0 c-159 0 -277 36 -383
116 -28 22 -104 102 -168 179 -138 167 -158 185 -193 185 -54 0 -67 -21 -126
-198 -31 -92 -67 -184 -81 -203 -40 -60 -131 -92 -199 -69 -55 18 -81 44 -261
260 -90 109 -172 201 -181 204 -56 22 -94 -5 -124 -86 -46 -128 -143 -248
-250 -310 -55 -32 -148 -63 -212 -72 l-47 -6 -36 74 c-56 117 -77 212 -78 351
0 66 5 149 12 185 16 81 79 280 90 280 4 0 23 -16 42 -36 38 -40 101 -74 139
-74 39 0 105 35 128 68 15 20 28 68 41 144 22 125 60 229 117 313 l37 56 39
-73 c109 -201 186 -266 285 -239 68 19 90 46 133 165 36 99 107 237 129 250 5
3 16 -24 26 -61 28 -113 89 -217 180 -308 86 -87 132 -115 189 -115 57 0 97
22 154 85 79 87 137 173 187 276 61 130 74 182 54 217 -29 53 -109 54 -136 2
-7 -14 -27 -59 -43 -102 -17 -42 -48 -104 -68 -137 -40 -66 -132 -180 -146
-180 -4 -1 -38 29 -76 67 -112 112 -159 235 -160 415 0 80 -2 90 -25 112 -36
37 -76 33 -126 -12z m-345 -1621 c190 -229 230 -256 381 -257 79 0 97 3 147
28 105 52 160 123 208 272 12 39 26 74 30 78 4 4 33 -24 65 -63 178 -217 343
-306 589 -317 l118 -6 -5 -241 c-3 -133 -8 -250 -11 -261 -5 -15 2 -25 29 -43
20 -12 43 -38 52 -57 14 -29 14 -38 3 -65 -16 -39 -63 -75 -124 -96 -41 -14
-50 -23 -75 -73 -235 -461 -795 -702 -1295 -556 -296 86 -554 295 -687 557
-26 51 -33 58 -79 73 -57 19 -116 69 -125 106 -9 38 10 76 55 106 34 23 39 32
35 53 -4 14 -9 131 -12 261 -6 267 -14 241 77 254 172 26 373 167 472 330 18
30 34 55 35 55 1 0 53 -62 117 -138z m-862 -499 c2 -120 2 -220 1 -221 -4 -9
-48 13 -79 40 -54 48 -78 102 -79 178 0 51 5 75 25 110 23 40 99 110 120 110
5 0 11 -98 12 -217z m2596 203 c72 -38 116 -116 116 -206 0 -76 -23 -130 -78
-178 -31 -27 -75 -49 -79 -40 -5 8 5 438 9 438 3 0 17 -6 32 -14z m-1158
-1673 l0 -111 -46 -41 c-83 -73 -145 -73 -228 0 l-46 41 0 111 0 112 160 0
160 0 0 -112z m-393 -264 c147 -139 326 -139 468 1 l50 50 90 -11 c113 -14
212 -39 312 -79 85 -34 183 -87 183 -99 0 -9 -241 -63 -375 -85 -298 -49 -695
-49 -990 0 -139 23 -375 76 -375 85 0 12 97 64 180 98 115 46 252 77 389 90 8
0 38 -22 68 -50z m-625 -314 c366 -85 553 -108 858 -108 305 0 492 23 860 109
l195 45 53 -58 c30 -32 76 -89 103 -128 45 -62 48 -71 32 -77 -10 -4 -135 -35
-278 -69 -523 -122 -606 -133 -965 -133 -300 0 -421 12 -685 70 -205 46 -566
132 -571 137 -9 9 185 257 201 257 2 0 90 -20 197 -45z m-287 -409 l180 -42 3
-152 3 -152 -239 0 -238 0 7 63 c15 127 75 328 96 327 5 -1 89 -20 188 -44z
m2512 -21 c27 -75 52 -181 62 -262 l7 -63 -238 0 -239 0 3 152 3 152 175 42
c96 23 182 42 190 41 9 -1 24 -28 37 -62z m-2029 -90 c250 -51 347 -60 662
-60 315 0 419 10 665 60 66 14 123 25 127 25 5 0 8 -58 8 -130 l0 -130 -800 0
-800 0 0 130 c0 72 3 130 8 130 4 0 62 -11 130 -25z"/>
<path d="M1945 3015 c-24 -23 -25 -31 -25 -135 0 -104 1 -112 25 -135 15 -16
36 -25 55 -25 19 0 40 9 55 25 24 23 25 31 25 135 0 104 -1 112 -25 135 -15
16 -36 25 -55 25 -19 0 -40 -9 -55 -25z"/>
<path d="M3065 3015 c-24 -23 -25 -31 -25 -135 0 -104 1 -112 25 -135 15 -16
36 -25 55 -25 19 0 40 9 55 25 24 23 25 31 25 135 0 104 -1 112 -25 135 -15
16 -36 25 -55 25 -19 0 -40 -9 -55 -25z"/>
<path d="M2025 2375 c-14 -13 -25 -36 -25 -51 0 -42 60 -143 127 -214 68 -73
141 -120 241 -158 59 -23 82 -26 192 -26 110 0 133 3 192 26 100 38 173 85
241 158 67 71 127 172 127 214 0 15 -11 38 -25 51 l-24 25 -511 0 -511 0 -24
-25z m825 -177 c-161 -146 -418 -146 -581 2 l-44 39 335 0 335 0 -45 -41z"/>
</g>
</svg>
