<svg xmlns:inkscape="http://www.inkscape.org/namespaces/inkscape" xmlns:sodipodi="http://sodipodi.sourceforge.net/DTD/sodipodi-0.dtd" xmlns="http://www.w3.org/2000/svg" xmlns:svg="http://www.w3.org/2000/svg" viewBox="0 0 8.46667 10.583324375" version="1.1" x="0px" y="0px"><g transform="translate(-120.64969,-110.86023)"><path style="color:#000000;" d="m 216.30469,141.58594 c -0.28073,0.28073 -0.46598,0.64159 -0.53125,1.0332 l -0.0898,0.54492 c -0.07,0.42003 0.30654,0.79657 0.72657,0.72656 l 0.54296,-0.0898 c 0.39162,-0.0653 0.75248,-0.25247 1.03321,-0.5332 l 3.5957,-3.59375 c 0.24309,-0.24309 0.24309,-0.64559 0,-0.88867 l -0.79492,-0.79297 c -0.24309,-0.24309 -0.64363,-0.24309 -0.88672,0 z m 3.95312,-3.23633 c 0.0492,-0.0492 0.12272,-0.0492 0.17188,0 l 0.79297,0.79492 c 0.0492,0.0492 0.0492,0.12076 0,0.16992 l -3.59375,3.59375 c -0.20599,0.20599 -0.47243,0.34274 -0.75977,0.39063 l -0.54297,0.0918 c -0.0916,0.0153 -0.15785,-0.051 -0.14258,-0.14257 l 0.0898,-0.54493 c 0.0479,-0.28734 0.18464,-0.55182 0.39062,-0.75781 z" transform="matrix(1.0427503,0,0,1.0427503,-103.18641,-31.782217)" fill="#000000" stroke-linecap="round" stroke-linejoin="round" stroke-dashoffset="6.39999"/><path style="color:#000000;" d="m 125.64844,112.68359 a 0.2645835,0.2645835 0 0 0 -0.1875,0.0781 0.2645835,0.2645835 0 0 0 0,0.37305 l 1.38086,1.38086 a 0.2645835,0.2645835 0 0 0 0.37304,0 0.2645835,0.2645835 0 0 0 0,-0.375 l -1.3789,-1.37891 a 0.2645835,0.2645835 0 0 0 -0.1875,-0.0781 z" fill="#000000" stroke-linecap="round" stroke-linejoin="round" stroke-dashoffset="6.39999"/></g><text x="0" y="23.4666595" fill="#000000" font-size="5px" font-weight="bold" font-family="'Helvetica Neue', Helvetica, Arial-Unicode, Arial, Sans-serif">Created by Meko</text><text x="0" y="28.4666595" fill="#000000" font-size="5px" font-weight="bold" font-family="'Helvetica Neue', Helvetica, Arial-Unicode, Arial, Sans-serif">from the Noun Project</text></svg>